<svg width="492" height="437" viewBox="0 0 492 437" fill="none" xmlns="http://www.w3.org/2000/svg">
<path d="M491.299 218.5C491.299 186 450.599 155.2 388.199 136.1C402.599 72.5 396.199 21.9 367.999 5.7C361.499 1.9 353.899 0.0999985 345.599 0.0999985V22.4C350.199 22.4 353.899 23.3 356.999 25C370.599 32.8 376.499 62.5 371.899 100.7C370.799 110.1 368.999 120 366.799 130.1C347.199 125.3 325.799 121.6 303.299 119.2C289.799 100.7 275.799 83.9 261.699 69.2C294.299 38.9 324.899 22.3 345.699 22.3V0C318.199 0 282.199 19.6 245.799 53.6C209.399 19.8 173.399 0.400002 145.899 0.400002V22.7C166.599 22.7 197.299 39.2 229.899 69.3C215.899 84 201.899 100.7 188.599 119.2C165.999 121.6 144.599 125.3 124.999 130.2C122.699 120.2 120.999 110.5 119.799 101.2C115.099 63 120.899 33.3 134.399 25.4C137.399 23.6 141.299 22.8 145.899 22.8V0.5C137.499 0.5 129.899 2.3 123.299 6.1C95.1992 22.3 88.8992 72.8 103.399 136.2C41.1992 155.4 0.699219 186.1 0.699219 218.5C0.699219 251 41.3992 281.8 103.799 300.9C89.3992 364.5 95.7992 415.1 123.999 431.3C130.499 435.1 138.099 436.9 146.499 436.9C173.999 436.9 209.999 417.3 246.399 383.3C282.799 417.1 318.799 436.5 346.299 436.5C354.699 436.5 362.299 434.7 368.899 430.9C396.999 414.7 403.299 364.2 388.799 300.8C450.799 281.7 491.299 250.9 491.299 218.5ZM361.099 151.8C357.399 164.7 352.799 178 347.599 191.3C343.499 183.3 339.199 175.3 334.499 167.3C329.899 159.3 324.999 151.5 320.099 143.9C334.299 146 347.999 148.6 361.099 151.8ZM315.299 258.3C307.499 271.8 299.499 284.6 291.199 296.5C276.299 297.8 261.199 298.5 245.999 298.5C230.899 298.5 215.799 297.8 200.999 296.6C192.699 284.7 184.599 272 176.799 258.6C169.199 245.5 162.299 232.2 155.999 218.8C162.199 205.4 169.199 192 176.699 178.9C184.499 165.4 192.499 152.6 200.799 140.7C215.699 139.4 230.799 138.7 245.999 138.7C261.099 138.7 276.199 139.4 290.999 140.6C299.299 152.5 307.399 165.2 315.199 178.6C322.799 191.7 329.699 205 335.999 218.4C329.699 231.8 322.799 245.2 315.299 258.3ZM347.599 245.3C352.999 258.7 357.599 272.1 361.399 285.1C348.299 288.3 334.499 291 320.199 293.1C325.099 285.4 329.999 277.5 334.599 269.4C339.199 261.4 343.499 253.3 347.599 245.3ZM246.199 352C236.899 342.4 227.599 331.7 218.399 320C227.399 320.4 236.599 320.7 245.899 320.7C255.299 320.7 264.599 320.5 273.699 320C264.699 331.7 255.399 342.4 246.199 352ZM171.799 293.1C157.599 291 143.899 288.4 130.799 285.2C134.499 272.3 139.099 259 144.299 245.7C148.399 253.7 152.699 261.7 157.399 269.7C162.099 277.7 166.899 285.5 171.799 293.1ZM245.699 85C254.999 94.6 264.299 105.3 273.499 117C264.499 116.6 255.299 116.3 245.999 116.3C236.599 116.3 227.299 116.5 218.199 117C227.199 105.3 236.499 94.6 245.699 85ZM171.699 143.9C166.799 151.6 161.899 159.5 157.299 167.6C152.699 175.6 148.399 183.6 144.299 191.6C138.899 178.2 134.299 164.8 130.499 151.8C143.599 148.7 157.399 146 171.699 143.9ZM81.1992 269.1C45.7992 254 22.8992 234.2 22.8992 218.5C22.8992 202.8 45.7992 182.9 81.1992 167.9C89.7992 164.2 99.1992 160.9 108.899 157.8C114.599 177.4 122.099 197.8 131.399 218.7C122.199 239.5 114.799 259.8 109.199 279.3C99.2992 276.2 89.8992 272.8 81.1992 269.1ZM134.999 412C121.399 404.2 115.499 374.5 120.099 336.3C121.199 326.9 122.999 317 125.199 306.9C144.799 311.7 166.199 315.4 188.699 317.8C202.199 336.3 216.199 353.1 230.299 367.8C197.699 398.1 167.099 414.7 146.299 414.7C141.799 414.6 137.999 413.7 134.999 412ZM372.199 335.8C376.899 374 371.099 403.7 357.599 411.6C354.599 413.4 350.699 414.2 346.099 414.2C325.399 414.2 294.699 397.7 262.099 367.6C276.099 352.9 290.099 336.2 303.399 317.7C325.999 315.3 347.399 311.6 366.999 306.7C369.299 316.8 371.099 326.5 372.199 335.8ZM410.699 269.1C402.099 272.8 392.699 276.1 382.999 279.2C377.299 259.6 369.799 239.2 360.499 218.3C369.699 197.5 377.099 177.2 382.699 157.7C392.599 160.8 401.999 164.2 410.799 167.9C446.199 183 469.099 202.8 469.099 218.5C468.999 234.2 446.099 254.1 410.699 269.1Z" fill="#61DAFB"/>
<path d="M245.899 264.2C271.139 264.2 291.599 243.739 291.599 218.5C291.599 193.26 271.139 172.8 245.899 172.8C220.66 172.8 200.199 193.26 200.199 218.5C200.199 243.739 220.66 264.2 245.899 264.2Z" fill="#61DAFB"/>
</svg>
