<svg width="1872" height="1694" viewBox="0 0 1872 1694" fill="none" xmlns="http://www.w3.org/2000/svg">
<path d="M1847.18 744.891L1478.44 101.687C1446.48 45.8927 1367.97 0 1303.81 0H567.108C503.182 0 424.366 45.8927 392.481 101.687L23.9722 744.891C-7.99073 800.686 -7.99073 892.078 23.9722 947.951L392.325 1591.47C424.288 1647.26 502.792 1693.16 566.952 1693.16H1304.05C1367.97 1693.16 1446.4 1647.26 1478.67 1591.47L1847.11 947.872C1879.07 892.078 1879.07 800.686 1847.11 744.891H1847.18ZM855.788 355.825C855.788 313.626 889.933 279.207 931.719 279.207C973.505 279.207 1007.73 313.626 1007.73 355.825V813.259C1006.49 832.711 997.953 850.958 983.849 864.293C969.745 877.627 951.134 885.049 931.797 885.049C912.46 885.049 893.849 877.627 879.745 864.293C865.641 850.958 857.103 832.711 855.866 813.259L855.788 355.825ZM931.719 1332.62C795.144 1332.43 664.218 1277.65 567.659 1180.28C471.1 1082.92 416.793 950.929 416.648 813.259C416.833 732.284 435.716 652.464 471.804 580.12C507.891 507.776 560.191 444.894 624.563 396.453C631.692 391.099 639.799 387.218 648.42 385.031C657.041 382.844 666.005 382.395 674.799 383.709C683.592 385.023 692.042 388.075 699.662 392.689C707.282 397.304 713.924 403.39 719.205 410.598C724.512 417.772 728.363 425.93 730.538 434.606C732.713 443.283 733.169 452.306 731.88 461.16C730.591 470.014 727.582 478.525 723.026 486.205C718.47 493.886 712.456 500.585 705.328 505.919C627.23 567.51 576.099 657.423 562.843 756.48C549.586 855.536 575.253 955.893 634.369 1036.14C693.484 1116.39 781.368 1170.18 879.272 1186.03C977.176 1201.88 1077.35 1178.54 1158.42 1120.99C1206.03 1085.32 1244.7 1038.91 1271.33 985.473C1297.96 932.036 1311.81 873.058 1311.77 813.259C1311.61 753.238 1297.53 694.085 1270.64 640.529C1243.76 586.973 1204.82 540.499 1156.94 504.819C1142.53 494.051 1132.94 477.968 1130.27 460.089C1127.59 442.209 1132.05 423.991 1142.67 409.419C1153.36 394.894 1169.31 385.226 1187.05 382.531C1204.79 379.836 1222.86 384.333 1237.32 395.038C1302.2 443.427 1354.93 506.456 1391.31 579.08C1427.68 651.704 1446.69 731.904 1446.79 813.259C1446.69 950.948 1392.38 1082.97 1295.79 1180.33C1199.21 1277.69 1068.24 1332.43 931.641 1332.54L931.719 1332.62Z" fill="#6CB52D"/>
</svg>
